<svg width="24" height="24" viewBox="0 0 24 24" fill="none" xmlns="http://www.w3.org/2000/svg">
<path d="M12 1.25C17.93 1.25 22.75 6.07 22.75 12C22.75 17.93 17.93 22.75 12 22.75C6.07 22.75 1.25 17.93 1.25 12C1.25 6.07 6.07 1.25 12 1.25ZM12 21.25C17.1 21.25 21.25 17.1 21.25 12C21.25 6.9 17.1 2.75 12 2.75C6.9 2.75 2.75 6.9 2.75 12C2.75 17.1 6.9 21.25 12 21.25Z" fill="#000034"/>
<path d="M12 10.25C12.41 10.25 12.75 10.59 12.75 11V16C12.75 16.41 12.41 16.75 12 16.75C11.59 16.75 11.25 16.41 11.25 16V11C11.25 10.59 11.59 10.25 12 10.25Z" fill="#000034"/>
<path d="M12 6.99914C12.13 6.99914 12.26 7.02914 12.38 7.07914C12.5 7.12914 12.61 7.19914 12.71 7.28914C12.8 7.38914 12.87 7.48914 12.92 7.61914C12.97 7.73914 13 7.86914 13 7.99914C13 8.12914 12.97 8.25914 12.92 8.37914C12.87 8.49914 12.8 8.60914 12.71 8.70914C12.61 8.79914 12.5 8.86914 12.38 8.91914C12.14 9.01914 11.86 9.01914 11.62 8.91914C11.5 8.86914 11.39 8.79914 11.29 8.70914C11.2 8.60914 11.13 8.49914 11.08 8.37914C11.03 8.25914 11 8.12914 11 7.99914C11 7.86914 11.03 7.73914 11.08 7.61914C11.13 7.48914 11.2 7.38914 11.29 7.28914C11.39 7.19914 11.5 7.12914 11.62 7.07914C11.74 7.02914 11.87 6.99914 12 6.99914Z" fill="#000034"/>
</svg>
