<svg width="40" height="40" viewBox="0 0 40 40" fill="none" xmlns="http://www.w3.org/2000/svg">
<circle cx="20" cy="20" r="19.5" fill="#FFFAF6" stroke="black"/>
<path d="M18.3214 13.9309C18.3214 14.1209 18.2514 14.3109 18.1014 14.4609L12.5614 20.0009L18.1014 25.5409C18.3914 25.8309 18.3914 26.3109 18.1014 26.6009C17.8114 26.8909 17.3314 26.8909 17.0414 26.6009L10.9714 20.5309C10.6814 20.2409 10.6814 19.7609 10.9714 19.4709L17.0414 13.4009C17.3314 13.1109 17.8114 13.1109 18.1014 13.4009C18.2514 13.5409 18.3214 13.7409 18.3214 13.9309Z" fill="#292D32"/>
<path d="M29.2519 20C29.2519 20.41 28.9119 20.75 28.5019 20.75H11.6719C11.2619 20.75 10.9219 20.41 10.9219 20C10.9219 19.59 11.2619 19.25 11.6719 19.25H28.5019C28.9119 19.25 29.2519 19.59 29.2519 20Z" fill="#292D32"/>
</svg>
