<svg width="11" height="16" viewBox="0 0 11 16" fill="none" xmlns="http://www.w3.org/2000/svg">
<path d="M10.6335 15.5H0.377841V13.2912H10.6335V15.5ZM7.7358 9.75426H0.328125V7.60227H7.7358V9.75426ZM4.36932 5.16619L4.59659 11.2528C4.625 11.8826 4.52083 12.4271 4.28409 12.8864C4.05208 13.3409 3.64252 13.715 3.0554 14.0085L1.1804 13.2912C1.41241 13.258 1.58996 13.1373 1.71307 12.929C1.83617 12.7206 1.91903 12.4744 1.96165 12.1903C2.00426 11.9015 2.02083 11.6269 2.01136 11.3665L1.7983 5.16619C1.76515 4.20502 1.94744 3.39773 2.34517 2.74432C2.74763 2.08617 3.29451 1.59138 3.9858 1.25994C4.67708 0.923768 5.44176 0.755681 6.27983 0.755681C6.99953 0.755681 7.64347 0.864583 8.21165 1.08239C8.78456 1.30019 9.26515 1.60322 9.65341 1.99148C10.0464 2.37973 10.3329 2.82955 10.5128 3.34091C10.6974 3.85227 10.7566 4.40388 10.6903 4.99574L8.22585 4.78977C8.259 4.3589 8.18797 4.00615 8.01278 3.73153C7.84233 3.45218 7.60559 3.24858 7.30256 3.12074C7.00426 2.98816 6.68466 2.92188 6.34375 2.92188C5.99337 2.92188 5.66667 3.00237 5.36364 3.16335C5.06534 3.32434 4.82386 3.57055 4.6392 3.90199C4.45928 4.23343 4.36932 4.65483 4.36932 5.16619Z" fill="#000034"/>
</svg>
